# xmcd
#
# Track frame offsets: 
#        150
#        10799
#        25934
#        36660
#        53548
#        64846
#        80950
#        105512
#        119616
#        132994
#        146377
#        158112
#        171464
#        182939
#        191731
#
# Disc length: 2700 seconds
#
# Revision: 2
# Processed by: cddbd v1.5.1PL2 Copyright (c) Steve Scherf et al.
# Submitted via: ExactAudioCopy v0.95b3
#
DISCID=d90a8a0f
DTITLE=Various Artist - All That Lounge [CD3]
DYEAR=2004
DGENRE=Jazz
TTITLE0=Ella Fitzgerald - Days of Wine And Roses
TTITLE1=Charles Trenet - La Mer
TTITLE2=Trini Lopez - Made in Paris
TTITLE3=Ray Charles - Don't Let The Sun Catch You Crying
TTITLE4=Antonio Carlos Jobim - Hurry up And Love me (Preciso de Voce)
TTITLE5=Aretha Franklin - I Say a Little Prayer
TTITLE6=Grover Washington Jr. - In The Name of Love
TTITLE7=Bobby Darin - Mack The Knife
TTITLE8=The Pretenders - The Windows of The World
TTITLE9=Dionne Warwick - (There's) Always Something There to Remind Me
TTITLE10=Equivel - Chant To The Night
TTITLE11=Chris Connor - It's A Most Unusual Day
TTITLE12=Eddie Cano and Nino Tempo - On Broadway
TTITLE13=Antonio Carlos Jobim - Pardon my English (Samba Torto)
TTITLE14=Mel Torme - Puttin' on The Ritz
EXTD=
EXTT0=
EXTT1=
EXTT2=
EXTT3=
EXTT4=
EXTT5=
EXTT6=
EXTT7=
EXTT8=
EXTT9=
EXTT10=
EXTT11=
EXTT12=
EXTT13=
EXTT14=
PLAYORDER=
